<svg xmlns="http://www.w3.org/2000/svg" viewBox="0 0 512 512">
  <defs>
    <linearGradient id="bg" x1="0%" x2="100%" y1="0%" y2="100%">
      <stop offset="0%" stop-color="#09111f"/>
      <stop offset="100%" stop-color="#123454"/>
    </linearGradient>
    <linearGradient id="accent" x1="0%" x2="100%" y1="0%" y2="100%">
      <stop offset="0%" stop-color="#31d0aa"/>
      <stop offset="100%" stop-color="#8ee0ff"/>
    </linearGradient>
  </defs>
  <rect width="512" height="512" rx="128" fill="url(#bg)"/>
  <path d="M116 172c0-31 25-56 56-56h168c31 0 56 25 56 56v168c0 31-25 56-56 56H172c-31 0-56-25-56-56V172z" fill="none" opacity=".18" stroke="#8ee0ff" stroke-width="18"/>
  <path d="M176 318V194h48l32 54 32-54h48v124h-42v-58l-30 46h-16l-30-46v58h-42z" fill="url(#accent)"/>
  <circle cx="368" cy="154" r="22" fill="#31d0aa"/>
</svg>
